<svg width="64" height="64" viewBox="0 0 64 64" fill="none" xmlns="http://www.w3.org/2000/svg">
    <g filter="url(#filter0_d_149_1020)">
        <path d="M56 14C56 8.47715 51.5228 4 46 4H8V52H46C51.5228 52 56 47.5228 56 42V14Z" fill="white" fill-opacity="0.9" shape-rendering="crispEdges"/>
        <path d="M24 27.1C23.5029 27.1 23.1 27.5029 23.1 28C23.1 28.4971 23.5029 28.9 24 28.9V27.1ZM40.6364 28.6364C40.9879 28.2849 40.9879 27.7151 40.6364 27.3636L34.9088 21.636C34.5574 21.2846 33.9875 21.2846 33.636 21.636C33.2846 21.9875 33.2846 22.5574 33.636 22.9088L38.7272 28L33.636 33.0912C33.2846 33.4426 33.2846 34.0125 33.636 34.364C33.9875 34.7154 34.5574 34.7154 34.9088 34.364L40.6364 28.6364ZM24 28.9H40V27.1H24V28.9Z" fill="#9CA9B6"/>
    </g>
    <defs>
        <filter id="filter0_d_149_1020" x="0" y="0" width="64" height="64" filterUnits="userSpaceOnUse" color-interpolation-filters="sRGB">
            <feFlood flood-opacity="0" result="BackgroundImageFix"/>
            <feColorMatrix in="SourceAlpha" type="matrix" values="0 0 0 0 0 0 0 0 0 0 0 0 0 0 0 0 0 0 127 0" result="hardAlpha"/>
            <feMorphology radius="2" operator="dilate" in="SourceAlpha" result="effect1_dropShadow_149_1020"/>
            <feOffset dy="4"/>
            <feGaussianBlur stdDeviation="3"/>
            <feComposite in2="hardAlpha" operator="out"/>
            <feColorMatrix type="matrix" values="0 0 0 0 0.423529 0 0 0 0 0.462745 0 0 0 0 0.517647 0 0 0 0.06 0"/>
            <feBlend mode="normal" in2="BackgroundImageFix" result="effect1_dropShadow_149_1020"/>
            <feBlend mode="normal" in="SourceGraphic" in2="effect1_dropShadow_149_1020" result="shape"/>
        </filter>
    </defs>
</svg>
