<svg width="35" height="35" viewBox="0 0 35 35" fill="none" xmlns="http://www.w3.org/2000/svg">
    <g opacity="0.2" clip-path="url(#clip0_1085_340)">
        <path d="M25.0834 7.5835H21.2893V24.5807C21.2893 24.5807 19.62 26.0983 19.0129 26.25C18.4059 26.4018 17.8005 26.4908 17.1918 26.25C16.3345 25.9109 16.0239 25.3542 15.5223 24.5807C14.8491 23.5423 14.6119 21.5455 14.6119 21.5455C14.6119 21.5455 14.6118 20.1796 14.7636 19.269C14.9807 18.5041 15.1136 18.0867 15.6742 17.5997C16.0744 17.2521 16.382 16.9997 16.8883 16.9926C17.3197 16.9866 17.5741 17.0855 17.9506 17.2962C18.3272 17.5068 19.0129 18.5102 19.0129 18.5102C19.0129 18.5102 19.686 18.6537 20.0753 18.5102C20.4314 18.3791 20.8341 17.9032 20.8341 17.9032C20.8341 17.9032 20.3298 17.289 19.9235 16.9926C19.0129 16.3856 18.1081 16.0127 16.8883 16.0821C15.6902 16.1502 14.9154 16.5374 14.1566 17.1444C13.3978 17.7514 13.0184 18.3585 12.639 19.1173C12.2596 19.8761 12.0319 21.0902 12.1837 22.3043C12.3355 23.5183 12.6889 24.9736 13.8531 26.0983C14.8832 27.0934 15.7609 27.5554 17.1918 27.6159C18.0976 27.6542 18.6623 27.5758 19.4682 27.1606C20.3623 26.7 21.2893 25.3395 21.2893 25.3395V27.0088H25.0834V26.4018H23.414V8.19054H25.0834V7.5835Z" fill="#6C7684" stroke="#6C7684"/>
        <circle cx="9.55608" cy="16.2341" r="1.47289" stroke="#6C7684"/>
        <circle cx="17.5" cy="17.5" r="17" stroke="#6C7684"/>
    </g>
    <defs>
        <clipPath id="clip0_1085_340">
            <rect width="35" height="35" fill="white"/>
        </clipPath>
    </defs>
</svg>
