<svg width="20" height="20" viewBox="0 0 20 20" fill="none" xmlns="http://www.w3.org/2000/svg">
    <path d="M2.07005 3.34553C2.04135 3.35667 1.94448 3.39007 1.85837 3.42348L1.7041 3.48286L3.02439 4.85247C6.17801 8.12246 9.05537 11.0361 9.20965 11.1178C9.70834 11.3813 10.2896 11.3813 10.7882 11.1178C10.9425 11.0361 13.8199 8.12246 16.9699 4.85247L18.2938 3.48286L18.1359 3.41234C17.9852 3.34553 17.752 3.34182 10.0528 3.3344C5.69366 3.33068 2.09875 3.33811 2.07005 3.34553Z" fill="#9CA9B6"/>
    <path d="M0.897892 4.42552C0.836901 4.59626 0.833313 4.84494 0.833313 10.0227C0.833313 15.3638 0.833313 15.4455 0.905068 15.6014L0.976822 15.761L3.77526 12.8844L6.57369 10.0116L5.51531 8.90923C4.9341 8.30423 3.67121 7.00885 2.7097 6.02897L0.966059 4.24736L0.897892 4.42552Z" fill="#9CA9B6"/>
    <path d="M16.2245 7.12762L13.4261 10.0042L16.2245 12.8807L19.023 15.761L19.0947 15.6014C19.1665 15.4455 19.1665 15.3638 19.1665 10.0042C19.1665 4.64451 19.1665 4.56285 19.0947 4.40696L19.023 4.24736L16.2245 7.12762Z" fill="#9CA9B6"/>
    <path d="M4.4973 13.6492L1.70245 16.5183L1.86031 16.5925C2.01817 16.6667 2.0684 16.6667 9.98295 16.6667C17.6894 16.6667 17.9549 16.663 18.1235 16.5962L18.2957 16.5257L17.2086 15.3974C16.6095 14.7775 15.3466 13.4821 14.403 12.5208L12.6881 10.7726L12.2145 11.2514C11.6548 11.823 11.5329 11.9232 11.192 12.1014C10.2664 12.5802 9.14342 12.4577 8.33618 11.7859C8.21419 11.6857 7.94153 11.4221 7.72268 11.1957C7.50741 10.9693 7.32085 10.7837 7.31009 10.7837C7.29932 10.7837 6.03285 12.0754 4.4973 13.6492Z" fill="#9CA9B6"/>
</svg>
