<svg width="18" height="18" viewBox="0 0 18 18" fill="none" xmlns="http://www.w3.org/2000/svg">
    <g clip-path="url(#clip0_1085_1617)">
        <path d="M5.90625 0.00012207C5.34375 0.00012207 4.75689 0.439404 4.5 0.713516C3.761 1.50071 3.0938 2.91695 2.30905 6.8248C2.16125 7.54874 2.09248 7.69611 2.08192 7.73829H1.28446H0V9.00364V10.269H1.14369C1.49176 10.269 1.6875 10.2514 1.6875 10.269C1.6875 10.3041 1.85993 9.48531 1.6875 10.269C1.4923 12.0946 0 15.4689 0 15.4689C0 15.4689 0.0105572 18.0001 0.0457478 18.0001C0.200587 18.0001 0.538416 17.9088 0.717889 17.8174C0.950147 17.7014 1.30909 17.3781 1.50968 17.104C2.2522 16.0989 2.84692 14.2153 3.62111 10.4304C3.65414 10.269 3.7654 10.2901 3.7654 10.283C3.7654 10.276 4.8 10.269 6.06686 10.269H8.37185L8.40704 10.4517C8.42463 10.5536 8.53724 10.5745 8.65689 11.1825C9.28329 14.4156 9.7654 15.997 10.4164 16.9986C11.0147 17.9123 11.8698 18.218 12.7038 17.8139C13.0346 17.6522 13.4358 17.2375 13.7103 16.7701C14.1009 16.1059 14.3683 15.4277 14.7026 14.2574C15.0088 13.1856 15.3138 12.4162 15.7572 10.2865L15.7548 10.2866L16.8669 10.276L17.9824 10.269V9.00364V7.73829H17.0147C16.2018 7.73829 16.0469 7.73126 16.0469 7.68909C16.0469 7.63637 16.5185 5.88649 16.6452 5.31367C17.0463 3.50735 17.9894 1.68762 17.9894 1.68762V0.713516L17.9824 0.00012207L17.817 0.0247231C16.8563 0.168806 15.6885 1.11765 15.0481 3.48977C14.7947 4.42457 14.4885 5.80215 14.1261 7.64011L13.9959 7.73829H12.0704H9.57889L10.064 7.86853C9.93728 7.16568 9.55018 5.26447 9.41998 4.69868C8.88508 2.38981 8.14663 1.20573 7.46041 0.562622C7.02053 0.14794 6.46875 0.00012207 5.90625 0.00012207ZM6.03519 2.04564C6.37114 2.04564 7.06276 3.30703 7.46041 5.06767C7.66804 5.98138 8.09384 7.54852 8.09384 7.67854C8.09384 7.73477 7.94252 7.73829 6.07038 7.73829C4.95836 7.73829 4.04692 7.73126 4.04692 7.72423C4.04692 7.68206 4.59589 5.59833 4.70147 5.13796C4.8915 4.30157 5.25566 3.05642 5.29971 2.93452C5.34375 2.81262 5.69924 2.04564 6.03519 2.04564ZM13.7812 10.276C13.7812 10.276 12.5053 15.9243 11.9611 15.9243C11.6903 15.9243 11.4297 14.9232 10.9688 12.9376C10.7858 12.1575 10.4159 10.4306 10.4159 10.3112C10.4159 10.2795 10.7618 10.269 12.0739 10.269C13.386 10.269 13.7812 10.276 13.7812 10.276Z" fill="#3281C4"/>
    </g>
    <defs>
        <clipPath id="clip0_1085_1617">
            <rect width="18" height="18" fill="white"/>
        </clipPath>
    </defs>
</svg>
