<svg width="16" height="16" viewBox="0 0 16 16" fill="none" xmlns="http://www.w3.org/2000/svg">
    <path d="M2.77541 0.167348C2.42728 0.275067 2.33793 0.348931 1.40137 1.28762C0.538745 2.14937 0.480209 2.21093 0.363139 2.45099C0.295361 2.58948 0.21218 2.81108 0.181371 2.94342C0.107432 3.27273 0.104351 3.96521 0.181371 4.38377C0.572633 6.52584 2.13152 9.068 4.51606 11.4501C6.92525 13.8599 9.48848 15.4419 11.5865 15.8204C11.8977 15.8758 12.0332 15.882 12.4337 15.8697C12.9667 15.8512 13.1516 15.8143 13.512 15.6419C13.7277 15.5373 13.8108 15.4634 14.6704 14.6047C15.4806 13.7953 15.61 13.6537 15.6963 13.4783C15.9274 13.0044 15.9335 12.4996 15.7179 12.0441C15.61 11.8164 15.5515 11.7517 14.4424 10.6376C13.8047 9.99746 13.2008 9.4127 13.1023 9.33884C12.8373 9.13879 12.634 9.068 12.2489 9.05261C11.873 9.03722 11.645 9.09878 11.3647 9.28344C11.0874 9.46502 10.9703 9.62506 10.7824 10.0621C10.6653 10.3298 10.5298 10.5145 10.3419 10.6561C9.89822 10.9946 9.4207 11.0716 8.8908 10.8931C7.54141 10.4437 5.95171 8.98182 5.27394 7.56917C5.10757 7.21831 4.94737 6.69819 4.94737 6.51045C4.95353 6.02725 5.33247 5.46711 5.80076 5.25783C6.28752 5.03624 6.35838 4.99623 6.52166 4.83311C6.87904 4.4761 7.03 3.91904 6.90368 3.42969C6.79894 3.02651 6.73732 2.95265 5.51732 1.72465C4.17717 0.373552 4.08475 0.296611 3.64727 0.170425C3.44086 0.11195 2.95717 0.108872 2.77541 0.167348Z" fill="#9CA9B6"/>
</svg>
