<svg width="902" height="712" viewBox="0 0 902 712" fill="none" xmlns="http://www.w3.org/2000/svg">
    <g filter="url(#filter0_ii_149_1047)">
        <path d="M591.18 36.1045C597.568 42.463 593.841 55.9749 591.18 61.936C610.919 54.4294 652.527 39.6811 661.043 40.7408C671.689 42.0655 674.351 42.7279 688.323 48.689C702.296 54.6501 710.946 73.8582 714.273 77.8323C717.6 81.8064 725.584 77.8323 727.58 79.8194C729.576 81.8064 731.572 90.4169 731.572 95.7157C731.572 99.9547 728.467 105.872 726.915 108.3V124.197C726.915 129.495 736.895 133.469 738.891 138.106C740.488 141.815 740.444 154.223 740.222 159.963C740.222 167.249 718.93 179.834 718.265 184.47C717.6 189.107 719.817 193.743 720.926 195.73C720.926 197.717 745.545 215.601 746.876 226.198C748.206 236.796 775.486 281.835 780.144 286.472C784.802 291.108 796.113 293.758 799.44 296.407C802.766 299.056 814.743 311.641 814.743 317.602C814.743 323.563 808.089 323.563 808.089 328.862C808.089 334.161 810.751 338.797 816.739 342.771C822.727 346.745 854 332.174 857.992 338.797C861.984 345.421 876.622 348.07 881.28 352.044C881.945 356.681 874.626 359.33 874.626 361.979C874.626 364.629 879.284 369.265 881.945 372.577C884.607 375.889 896.583 371.915 899.245 373.902C901.906 375.889 901.241 389.136 899.245 397.084C897.648 403.442 864.424 427.993 848.011 439.474C842.023 440.136 826.054 436.162 820.066 434.838C814.078 433.513 800.105 415.63 793.451 415.63C786.798 415.63 778.813 418.941 776.152 420.928C774.023 422.518 773.934 430.864 774.156 434.838C768.833 434.175 758.187 434.705 758.187 442.123C758.187 451.396 786.798 475.903 786.798 479.877C786.798 483.851 780.809 492.462 780.809 494.449C780.809 496.436 790.125 498.423 790.125 502.397C790.125 506.371 784.802 509.683 785.467 514.982C786.132 520.28 806.093 527.566 806.093 533.527C806.093 539.489 799.44 542.138 799.44 548.099C799.44 554.06 807.424 571.281 808.755 575.255C809.819 578.435 809.198 581.437 808.755 582.541C799.883 582.1 780.942 581.481 776.152 582.541C770.164 583.866 764.841 590.489 759.518 591.814C754.195 593.139 740.222 594.463 736.23 595.126C732.238 595.788 698.304 633.542 698.304 637.516C698.304 641.49 700.965 652.088 700.965 656.062C700.965 660.036 694.977 667.984 694.977 672.62C694.977 677.257 701.631 691.166 700.965 696.465C700.433 700.704 697.639 706.621 696.308 709.049C690.763 710.153 679.274 711.964 677.678 710.374C675.681 708.387 671.024 699.114 668.362 699.114C665.701 699.114 653.724 695.803 648.401 695.803C643.079 695.803 634.429 699.114 629.771 700.439C625.114 701.764 608.479 699.114 603.822 699.114C599.164 699.114 597.834 704.413 592.511 704.413C587.188 704.413 582.53 699.114 579.869 696.465C577.74 694.345 577.207 687.192 577.207 683.88C572.328 679.465 560.573 670.633 552.589 670.633C542.608 670.633 530.632 699.114 522.647 699.114C514.663 699.114 510.005 678.581 502.686 678.581C495.367 678.581 491.375 683.88 484.721 683.88C478.068 683.88 470.749 670.633 466.756 670.633C462.764 670.633 460.768 677.257 456.111 679.906C451.453 682.556 446.795 681.893 440.807 683.88C436.017 685.47 430.383 688.958 428.165 690.504C424.838 693.153 417.785 698.055 416.189 696.465C414.193 694.478 410.2 690.504 406.873 686.53C404.212 683.35 404.434 674.607 404.877 670.633L378.928 674.607C376.045 673.945 369.613 671.693 366.952 667.984C363.625 663.347 366.286 655.399 364.955 652.088C363.625 648.776 338.341 637.516 331.022 634.867C323.703 632.217 305.072 634.867 293.096 634.867C281.119 634.867 253.839 611.022 248.516 611.684C243.193 612.347 239.201 618.308 231.217 618.308C223.232 618.308 199.279 607.71 187.968 607.71C176.657 607.71 134.739 616.321 126.754 618.308C120.367 619.898 111.229 623.827 107.459 625.594C107.459 628.685 107.192 635.794 106.128 639.503C104.797 644.139 85.5015 652.088 82.8401 654.075C80.1786 656.062 70.1981 660.698 66.8713 660.698C63.5444 660.698 58.8869 656.724 54.8947 656.724C50.9025 656.724 44.2488 658.711 39.5912 660.698C35.8652 662.288 31.3851 667.542 29.6108 669.971C32.9376 649.659 38.2605 607.843 32.9376 603.074C26.2839 597.113 1 568.632 1 563.333C1 558.034 13.642 545.45 28.28 538.164C42.9181 530.878 54.2293 512.995 58.8869 507.033C63.5444 501.072 64.2098 487.825 65.5405 471.929C66.8713 456.033 60.2176 430.201 58.8869 421.591C57.8223 414.702 44.6924 370.148 38.2605 348.732C34.4901 339.68 27.4816 321.311 29.6108 320.251C31.7399 319.192 37.1516 319.81 39.5913 320.251C42.9181 321.576 50.7694 324.226 55.5601 324.226C61.5483 324.226 66.8713 321.576 68.8674 320.914C70.8635 320.251 94.1513 320.251 97.4781 321.576C100.805 322.901 114.778 324.888 118.77 324.226C122.762 323.563 126.754 310.979 134.073 310.979C141.392 310.979 146.715 315.615 150.042 316.277C153.369 316.94 158.692 313.628 159.357 310.979C160.023 308.329 157.361 305.017 154.7 301.706C152.57 299.056 154.7 294.42 156.03 292.433C163.349 291.329 178.919 288.591 182.645 286.472C187.303 283.822 196.618 272.562 203.271 271.9C210.59 271.9 225.229 285.809 228.555 290.446C232.548 291.329 240.931 292.565 242.528 290.446C244.524 287.796 244.524 278.524 243.859 275.874C243.193 273.225 238.536 271.9 235.874 269.913C233.213 267.926 227.89 259.316 228.555 254.017C229.088 249.778 239.867 228.185 243.859 221.562C245.189 216.263 247.718 204.738 247.186 201.029C246.52 196.393 249.847 179.171 251.178 173.873C252.242 169.634 258.275 165.483 261.158 163.937H279.123C285.511 161.288 289.769 153.561 291.1 150.028C301.746 147.379 317.049 152.678 322.372 149.366C327.695 146.054 338.341 120.885 338.341 118.898C338.341 116.911 333.683 118.898 332.353 118.898C331.288 118.898 330.578 116.69 330.356 115.586H310.395V92.404C310.395 91.7416 318.38 87.7675 325.033 82.4687C331.687 77.17 329.026 75.8453 330.356 71.2088C333.018 68.5594 340.337 75.8453 348.321 75.8453C356.306 75.8453 359.633 50.0137 369.613 50.0137C377.597 50.0137 388.465 55.7541 392.901 58.6242C398.224 60.6113 409.668 63.6581 412.862 59.9489C416.854 55.3125 420.181 47.3643 423.508 42.7279C426.834 38.0915 428.165 29.4809 430.827 25.5069C433.488 21.5328 447.461 1 456.111 1C464.76 1 482.06 1.6624 487.383 6.96118C492.706 12.26 516.659 1.6624 521.982 6.96118C527.305 12.26 525.309 18.8834 530.632 24.1822C535.955 29.481 547.266 20.2081 559.908 20.2081C572.55 20.2081 583.196 28.1563 591.18 36.1045Z" fill="url(#paint0_linear_149_1047)"/>
    </g>
    <path d="M591.18 36.1045C597.568 42.463 593.841 55.9749 591.18 61.936C610.919 54.4294 652.527 39.6811 661.043 40.7408C671.689 42.0655 674.351 42.7279 688.323 48.689C702.296 54.6501 710.946 73.8582 714.273 77.8323C717.6 81.8064 725.584 77.8323 727.58 79.8194C729.576 81.8064 731.572 90.4169 731.572 95.7157C731.572 99.9547 728.467 105.872 726.915 108.3V124.197C726.915 129.495 736.895 133.469 738.891 138.106C740.488 141.815 740.444 154.223 740.222 159.963C740.222 167.249 718.93 179.834 718.265 184.47C717.6 189.107 719.817 193.743 720.926 195.73C720.926 197.717 745.545 215.601 746.876 226.198C748.206 236.796 775.486 281.835 780.144 286.472C784.802 291.108 796.113 293.758 799.44 296.407C802.766 299.056 814.743 311.641 814.743 317.602C814.743 323.563 808.089 323.563 808.089 328.862C808.089 334.161 810.751 338.797 816.739 342.771C822.727 346.745 854 332.174 857.992 338.797C861.984 345.421 876.622 348.07 881.28 352.044C881.945 356.681 874.626 359.33 874.626 361.979C874.626 364.629 879.284 369.265 881.945 372.577C884.607 375.889 896.583 371.915 899.245 373.902C901.906 375.889 901.241 389.136 899.245 397.084C897.648 403.442 864.424 427.993 848.011 439.474C842.023 440.136 826.054 436.162 820.066 434.838C814.078 433.513 800.105 415.63 793.451 415.63C786.798 415.63 778.813 418.941 776.152 420.928C774.023 422.518 773.934 430.864 774.156 434.838C768.833 434.175 758.187 434.705 758.187 442.123C758.187 451.396 786.798 475.903 786.798 479.877C786.798 483.851 780.809 492.462 780.809 494.449C780.809 496.436 790.125 498.423 790.125 502.397C790.125 506.371 784.802 509.683 785.467 514.982C786.132 520.28 806.093 527.566 806.093 533.527C806.093 539.489 799.44 542.138 799.44 548.099C799.44 554.06 807.424 571.281 808.755 575.255C809.819 578.435 809.198 581.437 808.755 582.541C799.883 582.1 780.942 581.481 776.152 582.541C770.164 583.866 764.841 590.489 759.518 591.814C754.195 593.139 740.222 594.463 736.23 595.126C732.238 595.788 698.304 633.542 698.304 637.516C698.304 641.49 700.965 652.088 700.965 656.062C700.965 660.036 694.977 667.984 694.977 672.62C694.977 677.257 701.631 691.166 700.965 696.465C700.433 700.704 697.639 706.621 696.308 709.049C690.763 710.153 679.274 711.964 677.678 710.374C675.681 708.387 671.024 699.114 668.362 699.114C665.701 699.114 653.724 695.803 648.401 695.803C643.079 695.803 634.429 699.114 629.771 700.439C625.114 701.764 608.479 699.114 603.822 699.114C599.164 699.114 597.834 704.413 592.511 704.413C587.188 704.413 582.53 699.114 579.869 696.465C577.74 694.345 577.207 687.192 577.207 683.88C572.328 679.465 560.573 670.633 552.589 670.633C542.608 670.633 530.632 699.114 522.647 699.114C514.663 699.114 510.005 678.581 502.686 678.581C495.367 678.581 491.375 683.88 484.721 683.88C478.068 683.88 470.749 670.633 466.756 670.633C462.764 670.633 460.768 677.257 456.111 679.906C451.453 682.556 446.795 681.893 440.807 683.88C436.017 685.47 430.383 688.958 428.165 690.504C424.838 693.153 417.785 698.055 416.189 696.465C414.193 694.478 410.2 690.504 406.873 686.53C404.212 683.35 404.434 674.607 404.877 670.633L378.928 674.607C376.045 673.945 369.613 671.693 366.952 667.984C363.625 663.347 366.286 655.399 364.955 652.088C363.625 648.776 338.341 637.516 331.022 634.867C323.703 632.217 305.072 634.867 293.096 634.867C281.119 634.867 253.839 611.022 248.516 611.684C243.193 612.347 239.201 618.308 231.217 618.308C223.232 618.308 199.279 607.71 187.968 607.71C176.657 607.71 134.739 616.321 126.754 618.308C120.367 619.898 111.229 623.827 107.459 625.594C107.459 628.685 107.192 635.794 106.128 639.503C104.797 644.139 85.5015 652.088 82.8401 654.075C80.1786 656.062 70.1981 660.698 66.8713 660.698C63.5444 660.698 58.8869 656.724 54.8947 656.724C50.9025 656.724 44.2488 658.711 39.5912 660.698C35.8652 662.288 31.3851 667.542 29.6108 669.971C32.9376 649.659 38.2605 607.843 32.9376 603.074C26.2839 597.113 1 568.632 1 563.333C1 558.034 13.642 545.45 28.28 538.164C42.9181 530.878 54.2293 512.995 58.8869 507.033C63.5444 501.072 64.2098 487.825 65.5405 471.929C66.8713 456.033 60.2176 430.201 58.8869 421.591C57.8223 414.702 44.6924 370.148 38.2605 348.732C34.4901 339.68 27.4816 321.311 29.6108 320.251C31.7399 319.192 37.1516 319.81 39.5913 320.251C42.9181 321.576 50.7694 324.226 55.5601 324.226C61.5483 324.226 66.8713 321.576 68.8674 320.914C70.8635 320.251 94.1513 320.251 97.4781 321.576C100.805 322.901 114.778 324.888 118.77 324.226C122.762 323.563 126.754 310.979 134.073 310.979C141.392 310.979 146.715 315.615 150.042 316.277C153.369 316.94 158.692 313.628 159.357 310.979C160.023 308.329 157.361 305.017 154.7 301.706C152.57 299.056 154.7 294.42 156.03 292.433C163.349 291.329 178.919 288.591 182.645 286.472C187.303 283.822 196.618 272.562 203.271 271.9C210.59 271.9 225.229 285.809 228.555 290.446C232.548 291.329 240.931 292.565 242.528 290.446C244.524 287.796 244.524 278.524 243.859 275.874C243.193 273.225 238.536 271.9 235.874 269.913C233.213 267.926 227.89 259.316 228.555 254.017C229.088 249.778 239.867 228.185 243.859 221.562C245.189 216.263 247.718 204.738 247.186 201.029C246.52 196.393 249.847 179.171 251.178 173.873C252.242 169.634 258.275 165.483 261.158 163.937H279.123C285.511 161.288 289.769 153.561 291.1 150.028C301.746 147.379 317.049 152.678 322.372 149.366C327.695 146.054 338.341 120.885 338.341 118.898C338.341 116.911 333.683 118.898 332.353 118.898C331.288 118.898 330.578 116.69 330.356 115.586H310.395V92.404C310.395 91.7416 318.38 87.7675 325.033 82.4687C331.687 77.17 329.026 75.8453 330.356 71.2088C333.018 68.5594 340.337 75.8453 348.321 75.8453C356.306 75.8453 359.633 50.0137 369.613 50.0137C377.597 50.0137 388.465 55.7541 392.901 58.6242C398.224 60.6113 409.668 63.6581 412.862 59.9489C416.854 55.3125 420.181 47.3643 423.508 42.7279C426.834 38.0915 428.165 29.4809 430.827 25.5069C433.488 21.5328 447.461 1 456.111 1C464.76 1 482.06 1.6624 487.383 6.96118C492.706 12.26 516.659 1.6624 521.982 6.96118C527.305 12.26 525.309 18.8834 530.632 24.1822C535.955 29.481 547.266 20.2081 559.908 20.2081C572.55 20.2081 583.196 28.1563 591.18 36.1045Z" stroke="white"/>
    <defs>
        <filter id="filter0_ii_149_1047" x="0.5" y="0.5" width="901" height="717" filterUnits="userSpaceOnUse" color-interpolation-filters="sRGB">
            <feFlood flood-opacity="0" result="BackgroundImageFix"/>
            <feBlend mode="normal" in="SourceGraphic" in2="BackgroundImageFix" result="shape"/>
            <feColorMatrix in="SourceAlpha" type="matrix" values="0 0 0 0 0 0 0 0 0 0 0 0 0 0 0 0 0 0 127 0" result="hardAlpha"/>
            <feMorphology radius="1" operator="erode" in="SourceAlpha" result="effect1_innerShadow_149_1047"/>
            <feOffset/>
            <feGaussianBlur stdDeviation="10"/>
            <feComposite in2="hardAlpha" operator="arithmetic" k2="-1" k3="1"/>
            <feColorMatrix type="matrix" values="0 0 0 0 0.423529 0 0 0 0 0.462745 0 0 0 0 0.517647 0 0 0 0.2 0"/>
            <feBlend mode="normal" in2="shape" result="effect1_innerShadow_149_1047"/>
            <feColorMatrix in="SourceAlpha" type="matrix" values="0 0 0 0 0 0 0 0 0 0 0 0 0 0 0 0 0 0 127 0" result="hardAlpha"/>
            <feOffset dy="6"/>
            <feGaussianBlur stdDeviation="6"/>
            <feComposite in2="hardAlpha" operator="arithmetic" k2="-1" k3="1"/>
            <feColorMatrix type="matrix" values="0 0 0 0 0.423529 0 0 0 0 0.462745 0 0 0 0 0.517647 0 0 0 0.6 0"/>
            <feBlend mode="normal" in2="effect1_innerShadow_149_1047" result="effect2_innerShadow_149_1047"/>
        </filter>
        <linearGradient id="paint0_linear_149_1047" x1="1" y1="174.5" x2="901" y2="174.5" gradientUnits="userSpaceOnUse">
            <stop stop-color="#D8D6FE"/>
            <stop offset="1" stop-color="#ADD2FE"/>
        </linearGradient>
    </defs>
</svg>
